<svg width="267" height="50" viewBox="0 0 267 50" fill="none" xmlns="http://www.w3.org/2000/svg">
<path d="M50 25C50 38.8071 38.8071 50 25 50C11.1929 50 0 38.8071 0 25C0 11.1929 11.1929 0 25 0C38.8071 0 50 11.1929 50 25Z" fill="#31367E"/>
<path d="M50 25C50 28.68 49.1876 32.3147 47.6207 35.6445L40.8345 32.4511C41.9313 30.1203 42.5 27.576 42.5 25H50Z" fill="white"/>
<path d="M37.5 46.6506C34.313 48.4907 30.7591 49.6044 27.0919 49.9123L26.4644 42.4386C29.0314 42.2231 31.5191 41.4435 33.75 40.1554L37.5 46.6506Z" fill="white"/>
<path d="M12.5 46.6506C9.313 44.8106 6.57152 42.2897 4.47127 39.2678L10.6299 34.9875C12.1001 37.1028 14.0191 38.8674 16.25 40.1554L12.5 46.6506Z" fill="white"/>
<path d="M0 25C3.21719e-07 21.32 0.812442 17.6853 2.37932 14.3555L9.16553 17.5489C8.06871 19.8797 7.5 22.424 7.5 25L0 25Z" fill="white"/>
<path d="M12.5 3.34936C15.687 1.50935 19.2409 0.395614 22.9081 0.0876779L23.5356 7.56137C20.9687 7.77693 18.4809 8.55654 16.25 9.84455L12.5 3.34936Z" fill="white"/>
<path d="M37.5 3.34936C40.687 5.18938 43.4285 7.7103 45.5287 10.7322L39.3701 15.0125C37.8999 12.8972 35.9809 11.1326 33.75 9.84455L37.5 3.34936Z" fill="white"/>
<path d="M71.7 43.6688C69 43.6688 66.6167 43.1854 64.55 42.2188C62.4833 41.2521 60.8667 39.8688 59.7 38.0688C58.5333 36.2688 57.95 34.1021 57.95 31.5687V30.1687H64.45V31.5687C64.45 33.6687 65.1 35.2521 66.4 36.3187C67.7 37.3521 69.4667 37.8688 71.7 37.8688C73.9667 37.8688 75.65 37.4187 76.75 36.5187C77.8833 35.6187 78.45 34.4687 78.45 33.0687C78.45 32.1021 78.1667 31.3187 77.6 30.7188C77.0667 30.1187 76.2667 29.6354 75.2 29.2687C74.1667 28.8687 72.9 28.5021 71.4 28.1688L70.25 27.9188C67.85 27.3854 65.7833 26.7187 64.05 25.9187C62.35 25.0854 61.0333 24.0021 60.1 22.6687C59.2 21.3354 58.75 19.6021 58.75 17.4687C58.75 15.3354 59.25 13.5187 60.25 12.0187C61.2833 10.4854 62.7167 9.31875 64.55 8.51875C66.4167 7.68541 68.6 7.26875 71.1 7.26875C73.6 7.26875 75.8167 7.70208 77.75 8.56875C79.7167 9.40208 81.25 10.6687 82.35 12.3687C83.4833 14.0354 84.05 16.1354 84.05 18.6687V20.1687H77.55V18.6687C77.55 17.3354 77.2833 16.2687 76.75 15.4687C76.25 14.6354 75.5167 14.0354 74.55 13.6687C73.5833 13.2687 72.4333 13.0687 71.1 13.0687C69.1 13.0687 67.6167 13.4521 66.65 14.2187C65.7167 14.9521 65.25 15.9687 65.25 17.2687C65.25 18.1354 65.4667 18.8687 65.9 19.4687C66.3667 20.0687 67.05 20.5687 67.95 20.9687C68.85 21.3687 70 21.7187 71.4 22.0187L72.55 22.2687C75.05 22.8021 77.2167 23.4854 79.05 24.3187C80.9167 25.1521 82.3667 26.2521 83.4 27.6187C84.4333 28.9854 84.95 30.7354 84.95 32.8687C84.95 35.0021 84.4 36.8854 83.3 38.5187C82.2333 40.1187 80.7 41.3854 78.7 42.3187C76.7333 43.2187 74.4 43.6688 71.7 43.6688Z" fill="white"/>
<path d="M99.5723 42.9688C97.9389 42.9688 96.6056 42.4688 95.5723 41.4688C94.5723 40.4354 94.0723 39.0688 94.0723 37.3688V23.3687H87.8723V18.1687H94.0723V10.4687H100.372V18.1687H107.172V23.3687H100.372V36.2687C100.372 37.2687 100.839 37.7688 101.772 37.7688H106.572V42.9688H99.5723Z" fill="white"/>
<path d="M120.575 43.6688C118.808 43.6688 117.225 43.3687 115.825 42.7687C114.425 42.1354 113.308 41.2354 112.475 40.0687C111.675 38.8687 111.275 37.4188 111.275 35.7188C111.275 34.0188 111.675 32.6021 112.475 31.4688C113.308 30.3021 114.442 29.4354 115.875 28.8687C117.342 28.2687 119.008 27.9688 120.875 27.9688H127.675V26.5688C127.675 25.4021 127.308 24.4521 126.575 23.7187C125.842 22.9521 124.675 22.5687 123.075 22.5687C121.508 22.5687 120.342 22.9354 119.575 23.6687C118.808 24.3687 118.308 25.2854 118.075 26.4187L112.275 24.4688C112.675 23.2021 113.308 22.0521 114.175 21.0187C115.075 19.9521 116.258 19.1021 117.725 18.4688C119.225 17.8021 121.042 17.4687 123.175 17.4687C126.442 17.4687 129.025 18.2854 130.925 19.9187C132.825 21.5521 133.775 23.9187 133.775 27.0187V36.2687C133.775 37.2687 134.242 37.7688 135.175 37.7688H137.175V42.9688H132.975C131.742 42.9688 130.725 42.6687 129.925 42.0687C129.125 41.4687 128.725 40.6688 128.725 39.6688V39.6187H127.775C127.642 40.0187 127.342 40.5521 126.875 41.2188C126.408 41.8521 125.675 42.4188 124.675 42.9188C123.675 43.4188 122.308 43.6688 120.575 43.6688ZM121.675 38.5687C123.442 38.5687 124.875 38.0854 125.975 37.1188C127.108 36.1188 127.675 34.8021 127.675 33.1688V32.6687H121.325C120.158 32.6687 119.242 32.9188 118.575 33.4188C117.908 33.9188 117.575 34.6187 117.575 35.5187C117.575 36.4187 117.925 37.1521 118.625 37.7188C119.325 38.2854 120.342 38.5687 121.675 38.5687Z" fill="white"/>
<path d="M152.943 43.6688C150.543 43.6688 148.36 43.1688 146.393 42.1688C144.46 41.1688 142.926 39.7188 141.793 37.8188C140.66 35.9188 140.093 33.6188 140.093 30.9188V30.2188C140.093 27.5187 140.66 25.2187 141.793 23.3188C142.926 21.4188 144.46 19.9688 146.393 18.9688C148.36 17.9687 150.543 17.4687 152.943 17.4687C155.31 17.4687 157.343 17.8854 159.043 18.7188C160.743 19.5521 162.11 20.7021 163.143 22.1687C164.21 23.6021 164.91 25.2354 165.243 27.0687L159.143 28.3687C159.01 27.3687 158.71 26.4687 158.243 25.6687C157.776 24.8687 157.11 24.2354 156.243 23.7687C155.41 23.3021 154.36 23.0687 153.093 23.0687C151.826 23.0687 150.676 23.3521 149.643 23.9187C148.643 24.4521 147.843 25.2687 147.243 26.3687C146.676 27.4354 146.393 28.7521 146.393 30.3187V30.8187C146.393 32.3854 146.676 33.7188 147.243 34.8188C147.843 35.8854 148.643 36.7021 149.643 37.2687C150.676 37.8021 151.826 38.0688 153.093 38.0688C154.993 38.0688 156.426 37.5854 157.393 36.6188C158.393 35.6188 159.026 34.3187 159.293 32.7187L165.393 34.1688C164.96 35.9354 164.21 37.5521 163.143 39.0187C162.11 40.4521 160.743 41.5854 159.043 42.4188C157.343 43.2521 155.31 43.6688 152.943 43.6688Z" fill="white"/>
<path d="M170.59 42.9688V7.96875H176.89V27.3187H177.79L185.99 18.1687H194.19L182.74 30.1687L194.59 42.9688H186.49L177.79 33.1187H176.89V42.9688H170.59Z" fill="white"/>
<path d="M208.599 43.6688C206.132 43.6688 203.949 43.1521 202.049 42.1187C200.182 41.0521 198.716 39.5688 197.649 37.6688C196.616 35.7354 196.099 33.4688 196.099 30.8688V30.2687C196.099 27.6687 196.616 25.4187 197.649 23.5187C198.682 21.5854 200.132 20.1021 201.999 19.0687C203.866 18.0021 206.032 17.4687 208.499 17.4687C210.932 17.4687 213.049 18.0187 214.849 19.1187C216.649 20.1854 218.049 21.6854 219.049 23.6187C220.049 25.5187 220.549 27.7354 220.549 30.2687V32.4187H202.499C202.566 34.1187 203.199 35.5021 204.399 36.5687C205.599 37.6354 207.066 38.1688 208.799 38.1688C210.566 38.1688 211.866 37.7854 212.699 37.0187C213.532 36.2521 214.166 35.4021 214.599 34.4688L219.749 37.1688C219.282 38.0354 218.599 38.9854 217.699 40.0187C216.832 41.0187 215.666 41.8854 214.199 42.6187C212.732 43.3187 210.866 43.6688 208.599 43.6688ZM202.549 27.7188H214.149C214.016 26.2854 213.432 25.1354 212.399 24.2687C211.399 23.4021 210.082 22.9688 208.449 22.9688C206.749 22.9688 205.399 23.4021 204.399 24.2687C203.399 25.1354 202.782 26.2854 202.549 27.7188Z" fill="white"/>
<path d="M236.156 43.6688C234.19 43.6688 232.34 43.1854 230.606 42.2188C228.906 41.2187 227.54 39.7688 226.506 37.8688C225.473 35.9688 224.956 33.6688 224.956 30.9688V30.1687C224.956 27.4687 225.473 25.1687 226.506 23.2687C227.54 21.3687 228.906 19.9354 230.606 18.9688C232.306 17.9687 234.156 17.4687 236.156 17.4687C237.656 17.4687 238.906 17.6521 239.906 18.0187C240.94 18.3521 241.773 18.7854 242.406 19.3187C243.04 19.8521 243.523 20.4187 243.856 21.0187H244.756V7.96875H251.056V42.9688H244.856V39.9688H243.956C243.39 40.9021 242.506 41.7521 241.306 42.5187C240.14 43.2854 238.423 43.6688 236.156 43.6688ZM238.056 38.1688C239.99 38.1688 241.606 37.5521 242.906 36.3187C244.206 35.0521 244.856 33.2187 244.856 30.8187V30.3187C244.856 27.9187 244.206 26.1021 242.906 24.8687C241.64 23.6021 240.023 22.9688 238.056 22.9688C236.123 22.9688 234.506 23.6021 233.206 24.8687C231.906 26.1021 231.256 27.9187 231.256 30.3187V30.8187C231.256 33.2187 231.906 35.0521 233.206 36.3187C234.506 37.5521 236.123 38.1688 238.056 38.1688Z" fill="white"/>
<path d="M261.991 43.6688C260.658 43.6688 259.524 43.2354 258.591 42.3687C257.691 41.4687 257.241 40.3188 257.241 38.9188C257.241 37.5188 257.691 36.3854 258.591 35.5187C259.524 34.6187 260.658 34.1688 261.991 34.1688C263.358 34.1688 264.491 34.6187 265.391 35.5187C266.291 36.3854 266.741 37.5188 266.741 38.9188C266.741 40.3188 266.291 41.4687 265.391 42.3687C264.491 43.2354 263.358 43.6688 261.991 43.6688Z" fill="white"/>
</svg>
