<svg width="32" height="32" viewBox="0 0 32 32" fill="none" xmlns="http://www.w3.org/2000/svg">
<path d="M32 16C32 24.8366 24.8366 32 16 32C7.16344 32 0 24.8366 0 16C0 7.16344 7.16344 0 16 0C24.8366 0 32 7.16344 32 16Z" fill="#31367E"/>
<path d="M32 16C32 18.3552 31.48 20.6814 30.4772 22.8125L26.1341 20.7687C26.836 19.277 27.2 17.6487 27.2 16H32Z" fill="white"/>
<path d="M24 29.8564C21.9603 31.034 19.6858 31.7468 17.3388 31.9439L16.9372 27.1607C18.5801 27.0228 20.1722 26.5238 21.6 25.6995L24 29.8564Z" fill="white"/>
<path d="M8 29.8564C5.96032 28.6788 4.20577 27.0654 2.86161 25.1314L6.80313 22.392C7.74404 23.7458 8.97222 24.8752 10.4 25.6995L8 29.8564Z" fill="white"/>
<path d="M0 16C2.059e-07 13.6448 0.519963 11.3186 1.52277 9.18753L5.86594 11.2313C5.16397 12.723 4.8 14.3513 4.8 16L0 16Z" fill="white"/>
<path d="M8 2.14359C10.0397 0.965981 12.3142 0.253193 14.6612 0.0561139L15.0628 4.83928C13.4199 4.97724 11.8278 5.47619 10.4 6.30052L8 2.14359Z" fill="white"/>
<path d="M24 2.14359C26.0397 3.3212 27.7942 4.93459 29.1384 6.86858L25.1969 9.60801C24.256 8.25422 23.0278 7.12484 21.6 6.30052L24 2.14359Z" fill="white"/>
</svg>
